<svg width="131" height="50" viewBox="0 0 131 50" fill="none" xmlns="http://www.w3.org/2000/svg">
<g filter="url(#filter0_f_3389_53)">
<path d="M53.257 24.06C53.257 26.148 52.42 27.741 50.746 28.839C49.306 29.793 47.497 30.27 45.319 30.27C44.005 30.27 42.538 29.964 40.918 29.352L40.945 25.059H41.755C41.863 26.481 42.286 27.507 43.024 28.137C43.366 28.425 43.87 28.668 44.536 28.866C45.202 29.064 45.805 29.154 46.345 29.136C47.587 29.118 48.676 28.785 49.612 28.137C50.53 27.471 51.007 26.58 51.043 25.464C51.043 24.294 50.629 23.358 49.801 22.656C48.991 21.954 47.866 21.522 46.426 21.36C42.592 20.892 40.675 19.29 40.675 16.554C40.675 14.646 41.404 13.197 42.862 12.207C44.104 11.343 45.616 10.911 47.398 10.911C47.92 10.911 48.541 10.992 49.261 11.154C49.981 11.298 50.44 11.37 50.638 11.37C50.854 11.37 50.998 11.235 51.07 10.965H51.826V15.798H51.016C50.89 14.466 50.485 13.503 49.801 12.909C49.135 12.315 48.136 12.027 46.804 12.045C44.176 12.081 42.88 13.26 42.916 15.582C42.952 17.652 44.392 18.831 47.236 19.119C51.25 19.551 53.257 21.198 53.257 24.06ZM71.1768 11.397L71.2308 16.878H70.4208C70.3128 15.366 69.9078 14.25 69.2058 13.53C68.5038 12.792 67.2708 12.378 65.5068 12.288L64.2648 12.234V29.163H66.8028V30H59.2968V29.163H61.8078V12.234L60.5928 12.288C58.8468 12.36 57.6228 12.747 56.9208 13.449C56.2368 14.133 55.8138 15.276 55.6518 16.878H54.8688L54.9228 11.397H71.1768ZM87.5649 13.611C89.0409 15.375 89.7789 17.688 89.7789 20.55C89.7789 23.394 89.0049 25.743 87.4569 27.597C85.9089 29.451 83.9739 30.378 81.6519 30.378C79.3479 30.378 77.3679 29.433 75.7119 27.543C74.0919 25.635 73.2999 23.286 73.3359 20.496C73.3719 17.688 74.1639 15.393 75.7119 13.611C77.2779 11.811 79.2759 10.911 81.7059 10.911C84.1539 10.911 86.1069 11.811 87.5649 13.611ZM81.6789 29.433C83.3529 29.433 84.6219 28.632 85.4859 27.03C86.3499 25.428 86.7819 23.304 86.7819 20.658C86.7819 17.994 86.4039 15.906 85.6479 14.394C84.7479 12.63 83.3619 11.748 81.4899 11.748C79.6359 11.748 78.2769 12.585 77.4129 14.259C76.6929 15.681 76.3329 17.805 76.3329 20.631C76.3329 26.499 78.1149 29.433 81.6789 29.433ZM103.921 28.542L98.7638 21.171H97.1168L97.1708 29.163H99.6818V30H92.1758V29.163H94.6868V12.234H92.1758V11.397H100.357C102.535 11.397 104.191 11.829 105.325 12.693C106.459 13.557 107.026 14.709 107.026 16.149C107.026 17.589 106.522 18.759 105.514 19.659C104.542 20.469 103.264 20.928 101.68 21.036L107.215 28.542C107.503 28.902 108.142 29.127 109.132 29.217V30.027C107.818 29.973 105.739 29.973 102.895 30.027L102.922 29.163H103.678C103.93 29.109 104.056 29.019 104.056 28.893C104.056 28.749 104.011 28.632 103.921 28.542ZM99.4658 20.388C102.742 20.388 104.344 18.975 104.272 16.149C104.2 13.539 102.787 12.234 100.033 12.234H97.1708L97.1168 20.388H99.4658ZM118.074 29.163V30H110.352V29.163H112.89V12.234H110.352V11.397H118.074V12.234H115.563V29.163H118.074Z" fill="black"/>
</g>
<g filter="url(#filter1_f_3389_53)">
<path d="M41.835 42.58V43H38.115V42.58H39C39.2 42.58 39.315 42.465 39.345 42.235C39.335 41.815 39.33 40.665 39.33 38.785C39.33 38.175 39.17 37.685 38.85 37.315C38.53 36.935 38.14 36.745 37.68 36.745C37.23 36.745 36.785 36.965 36.345 37.405C35.965 37.805 35.775 38.105 35.775 38.305V42.235C35.805 42.465 35.92 42.58 36.12 42.58H37.02V43H33.285V42.58H34.17C34.36 42.58 34.48 42.465 34.53 42.235L34.5 33.385C34.49 33.045 34.32 32.875 33.99 32.875H33.27V32.455H35.76V37.33C36.3 36.34 37.085 35.845 38.115 35.845C39.785 35.845 40.605 36.755 40.575 38.575C40.565 39.195 40.575 40.415 40.605 42.235C40.635 42.465 40.75 42.58 40.95 42.58H41.835ZM51.1734 42.58V43H48.7734V41.77C47.8834 42.71 47.0434 43.18 46.2534 43.18C45.7234 43.18 45.2984 43.025 44.9784 42.715C44.6284 42.405 44.4534 41.965 44.4534 41.395C44.4534 40.605 44.7584 40.015 45.3684 39.625C45.8284 39.345 46.4734 39.13 47.3034 38.98L48.7734 38.725C48.7934 38.015 48.7334 37.495 48.5934 37.165C48.3934 36.695 48.0484 36.46 47.5584 36.46C46.7084 36.46 46.2784 36.745 46.2684 37.315C46.2684 37.415 46.3234 37.535 46.4334 37.675C46.5534 37.805 46.6134 37.875 46.6134 37.885C46.6234 38.035 46.5484 38.16 46.3884 38.26C46.2384 38.36 46.0984 38.395 45.9684 38.365C45.4684 38.365 45.2234 38.09 45.2334 37.54C45.2434 36.98 45.5884 36.56 46.2684 36.28C46.6884 36.12 47.1334 36.04 47.6034 36.04C48.3934 36.04 48.9834 36.26 49.3734 36.7C49.7634 37.18 49.9584 37.94 49.9584 38.98V42.25C49.9584 42.35 49.9934 42.43 50.0634 42.49C50.1334 42.55 50.2134 42.58 50.3034 42.58H51.1734ZM48.7734 41.17V39.22C47.9034 39.33 47.1884 39.495 46.6284 39.715C46.3684 39.815 46.1534 40 45.9834 40.27C45.8134 40.54 45.7284 40.835 45.7284 41.155C45.7284 41.475 45.8384 41.745 46.0584 41.965C46.2884 42.185 46.5584 42.305 46.8684 42.325C47.1884 42.335 47.5234 42.23 47.8734 42.01C48.2334 41.78 48.5334 41.5 48.7734 41.17ZM62.0034 42.595V43H58.3434V42.595H59.2284C59.4184 42.595 59.5284 42.48 59.5584 42.25V38.695C59.5584 38.115 59.4084 37.665 59.1084 37.345C58.8084 37.015 58.4234 36.85 57.9534 36.85C57.4834 36.85 57.0484 37.005 56.6484 37.315C56.2684 37.635 56.0784 37.935 56.0784 38.215V42.25C56.1084 42.48 56.2234 42.595 56.4234 42.595H57.2934V43H53.6334V42.595H54.5034C54.7034 42.595 54.8184 42.48 54.8484 42.25V37.06C54.8384 36.72 54.6684 36.55 54.3384 36.55H53.6334V36.145H56.0934V36.55C56.0834 36.67 56.0784 36.81 56.0784 36.97V37.27C56.1584 37.08 56.3684 36.84 56.7084 36.55C57.2184 36.15 57.7734 35.95 58.3734 35.95C59.9834 35.95 60.7884 36.805 60.7884 38.515V42.25C60.8184 42.48 60.9334 42.595 61.1334 42.595H62.0034ZM73.1143 42.595V43H70.6393L70.6993 41.68C70.5193 42.05 70.2193 42.375 69.7993 42.655C69.3093 43.015 68.7443 43.195 68.1043 43.195C67.1043 43.195 66.3393 42.855 65.8093 42.175C65.2793 41.485 65.0143 40.6 65.0143 39.52C65.0143 38.43 65.3843 37.53 66.1243 36.82C66.8643 36.11 67.7743 35.775 68.8543 35.815C69.2743 35.865 69.6643 35.965 70.0243 36.115C70.3443 36.285 70.5543 36.46 70.6543 36.64V33.4C70.6443 33.05 70.4643 32.875 70.1143 32.875H69.4093V32.455H71.8843V42.235C71.9043 42.475 72.0143 42.595 72.2143 42.595H73.1143ZM70.6543 39.535V37.63C70.5443 37.29 70.2893 36.995 69.8893 36.745C69.4893 36.495 69.0243 36.37 68.4943 36.37C67.9743 36.37 67.5143 36.58 67.1143 37C66.6443 37.51 66.3743 38.265 66.3043 39.265C66.2443 40.035 66.4293 40.72 66.8593 41.32C67.3193 41.99 67.9093 42.325 68.6293 42.325C69.3493 42.325 69.8843 42.02 70.2343 41.41C70.5143 40.92 70.6543 40.295 70.6543 39.535ZM88.0914 42.595V43H84.4464V42.595H85.3314C85.5214 42.595 85.6464 42.48 85.7064 42.25V38.71C85.7064 38.18 85.5864 37.745 85.3464 37.405C85.1064 37.055 84.7714 36.88 84.3414 36.88C83.9114 36.88 83.5014 37.045 83.1114 37.375C82.7214 37.685 82.5264 37.975 82.5264 38.245L82.5114 42.25C82.5614 42.48 82.6764 42.595 82.8564 42.595H83.7264V43H80.0964V42.595H80.9514C81.1414 42.595 81.2614 42.48 81.3114 42.25V38.71C81.3114 38.2 81.1964 37.775 80.9664 37.435C80.7364 37.065 80.3964 36.88 79.9464 36.88C79.5064 36.88 79.0964 37.035 78.7164 37.345C78.3464 37.645 78.1614 37.945 78.1614 38.245V42.25C78.1914 42.48 78.3014 42.595 78.4914 42.595H79.3614V43H75.7164V42.595H76.5864C76.7764 42.595 76.8864 42.48 76.9164 42.25V37.075C76.9064 36.735 76.7314 36.565 76.3914 36.565H75.7014V36.145H78.1614V37.285C78.3614 36.925 78.6264 36.64 78.9564 36.43C79.3964 36.13 79.8864 35.98 80.4264 35.98C81.3764 35.98 82.0464 36.435 82.4364 37.345C83.0264 36.435 83.8214 35.98 84.8214 35.98C85.4314 35.98 85.9314 36.195 86.3214 36.625C86.7214 37.045 86.9214 37.615 86.9214 38.335L86.9064 42.25C86.9264 42.48 87.0314 42.595 87.2214 42.595H88.0914ZM97.6893 42.58V43H95.2893V41.77C94.3993 42.71 93.5593 43.18 92.7693 43.18C92.2393 43.18 91.8143 43.025 91.4943 42.715C91.1443 42.405 90.9693 41.965 90.9693 41.395C90.9693 40.605 91.2743 40.015 91.8843 39.625C92.3443 39.345 92.9893 39.13 93.8193 38.98L95.2893 38.725C95.3093 38.015 95.2493 37.495 95.1093 37.165C94.9093 36.695 94.5643 36.46 94.0743 36.46C93.2243 36.46 92.7943 36.745 92.7843 37.315C92.7843 37.415 92.8393 37.535 92.9493 37.675C93.0693 37.805 93.1293 37.875 93.1293 37.885C93.1393 38.035 93.0643 38.16 92.9043 38.26C92.7543 38.36 92.6143 38.395 92.4843 38.365C91.9843 38.365 91.7393 38.09 91.7493 37.54C91.7593 36.98 92.1043 36.56 92.7843 36.28C93.2043 36.12 93.6493 36.04 94.1193 36.04C94.9093 36.04 95.4993 36.26 95.8893 36.7C96.2793 37.18 96.4743 37.94 96.4743 38.98V42.25C96.4743 42.35 96.5093 42.43 96.5793 42.49C96.6493 42.55 96.7293 42.58 96.8193 42.58H97.6893ZM95.2893 41.17V39.22C94.4193 39.33 93.7043 39.495 93.1443 39.715C92.8843 39.815 92.6693 40 92.4993 40.27C92.3293 40.54 92.2443 40.835 92.2443 41.155C92.2443 41.475 92.3543 41.745 92.5743 41.965C92.8043 42.185 93.0743 42.305 93.3843 42.325C93.7043 42.335 94.0393 42.23 94.3893 42.01C94.7493 41.78 95.0493 41.5 95.2893 41.17ZM108.759 42.595V43H106.284L106.344 41.68C106.164 42.05 105.864 42.375 105.444 42.655C104.954 43.015 104.389 43.195 103.749 43.195C102.749 43.195 101.984 42.855 101.454 42.175C100.924 41.485 100.659 40.6 100.659 39.52C100.659 38.43 101.029 37.53 101.769 36.82C102.509 36.11 103.419 35.775 104.499 35.815C104.919 35.865 105.309 35.965 105.669 36.115C105.989 36.285 106.199 36.46 106.299 36.64V33.4C106.289 33.05 106.109 32.875 105.759 32.875H105.054V32.455H107.529V42.235C107.549 42.475 107.659 42.595 107.859 42.595H108.759ZM106.299 39.535V37.63C106.189 37.29 105.934 36.995 105.534 36.745C105.134 36.495 104.669 36.37 104.139 36.37C103.619 36.37 103.159 36.58 102.759 37C102.289 37.51 102.019 38.265 101.949 39.265C101.889 40.035 102.074 40.72 102.504 41.32C102.964 41.99 103.554 42.325 104.274 42.325C104.994 42.325 105.529 42.02 105.879 41.41C106.159 40.92 106.299 40.295 106.299 39.535ZM117.436 39.52H112.666C112.666 40.4 112.886 41.085 113.326 41.575C113.776 42.105 114.436 42.37 115.306 42.37C115.766 42.37 116.361 42.14 117.091 41.68L117.286 41.83C116.576 42.7 115.696 43.135 114.646 43.135C113.596 43.135 112.771 42.82 112.171 42.19C111.611 41.58 111.331 40.77 111.331 39.76C111.331 38.75 111.631 37.88 112.231 37.15C112.841 36.41 113.656 36.04 114.676 36.04C115.516 36.04 116.191 36.325 116.701 36.895C117.211 37.455 117.466 38.145 117.466 38.965C117.466 39.075 117.456 39.26 117.436 39.52ZM116.146 38.98C116.146 38.26 116.011 37.67 115.741 37.21C115.481 36.75 115.086 36.52 114.556 36.52C114.026 36.52 113.581 36.735 113.221 37.165C112.861 37.595 112.681 38.19 112.681 38.95C114.551 39 115.706 39.01 116.146 38.98Z" fill="black"/>
</g>
<g filter="url(#filter2_f_3389_53)">
<path d="M17.1455 48.8535L14.871 3.24887C14.8099 2.02508 15.7837 1.00109 17.0089 1.00072V1.00072C18.234 1.00035 19.2137 2.02375 19.1596 3.24758L17.1455 48.8535Z" fill="black"/>
<path d="M18.6601 3.22425L17.1151 38.2078L15.3703 3.22524C15.3235 2.28649 16.0705 1.501 17.0103 1.50072C17.9501 1.50043 18.7016 2.28547 18.6601 3.22425Z" stroke="black"/>
</g>
<g filter="url(#filter3_f_3389_53)">
<path d="M17.9 5.82764C17.9 9.70023 17.4747 10.1335 16.95 10.1335C16.4253 10.1335 16 10.1335 16 5.82764C16 2.53169 16.4253 2.0002 16.95 2.0002C17.4747 2.0002 17.9 1.95505 17.9 5.82764Z" fill="white"/>
</g>
<g filter="url(#filter4_f_3389_53)">
<path d="M9.27273 7.28834L12.9317 6.18405L13.7267 6H14.323H14.7205H15.5155H16.3106H17.1056H17.9006H18.6957H19.4907H19.8882H20.087L20.6832 6.18405L21.2795 6.3681L21.8758 6.55215L22.472 6.7362L23.2671 6.92025L23.8634 7.10429L24.4596 7.28834L24.8571 7.47239L25.2547 7.65644L25.6522 7.84049L25.8509 8.02454L26.2484 8.20859L26.646 8.57669L27.0435 8.76074L27.441 9.12883L27.8385 9.31288L28.4348 9.68098L28.8323 10.0491L29.2298 10.4172L29.6273 10.7853L30.6211 11.8896L31.2174 12.6258L32.0124 13.9141L32.4099 14.6503L33.0062 15.7546L33.205 16.4908L33.4037 17.227L33.8012 18.3313L34 19.0675V21.2761V22.7485V23.1166L33.8012 23.4847L33.6025 24.2209L33.4037 24.773L33.205 25.3252L33.0062 26.0613L32.6087 26.7975L32.4099 27.3497L32.0124 27.9018L31.8137 28.2699L31.6149 28.638L31.4161 29.0061L31.2174 29.1902L31.0186 29.3742L30.8199 29.7423L30.6211 30.1104L30.2236 30.4785L30.0248 30.8466L29.4286 31.3988L29.0311 31.9509L28.4348 32.5031L27.6398 33.0552L27.0435 33.4233L26.646 33.7914L25.8509 34.1595L25.2547 34.5276L24.4596 34.8957L23.6646 35.0798L23.0683 35.4479L22.2733 35.6319L21.677 35.816L20.6832 36H19.2919H18.2981H17.1056H16.1118L15.5155 35.816L14.7205 35.6319L13.528 35.4479L12.3354 35.0798L11.5404 34.7117L9.95031 34.1595L8.95652 33.7914L8.36025 33.4233L7.56522 32.8712L6.37267 31.9509L5.57764 31.0307L4.38509 29.7423L3.59006 28.638L2.99379 27.5337L2.39752 26.0613L2 24.2209V22.7485V21.6442L2.59627 20.1718L2.99379 19.4356L3.98758 18.3313L4.78261 17.5951L5.97516 16.8589L7.1677 16.4908L8.36025 16.3067H9.55279H10.7453L11.9379 16.4908L12.9317 16.6748L13.7267 16.8589L14.5217 17.0429L15.118 17.227L15.913 17.411L16.9068 17.7791L17.7019 17.9632L18.6957 18.3313L19.4907 18.5153L20.2857 18.6994L20.882 18.8834H21.8758H22.8696L23.8634 18.6994L24.8571 18.3313L25.4534 17.9632L26.2484 17.227L26.646 16.4908L26.8447 16.1227V15.0184L26.4472 14.2822L25.8509 13.7301L25.0559 13.362L24.0621 13.1779L23.3333 13.1613L22.2733 13.1779L21.8758 13.362L21.4783 13.546L20.9091 13.9355L20.6832 14.0982L20.4242 14.7097" stroke="black" stroke-width="1.8" stroke-linecap="round"/>
</g>
<defs>
<filter id="filter0_f_3389_53" x="40.1748" y="10.411" width="78.3994" height="20.467" filterUnits="userSpaceOnUse" color-interpolation-filters="sRGB">
<feFlood flood-opacity="0" result="BackgroundImageFix"/>
<feBlend mode="normal" in="SourceGraphic" in2="BackgroundImageFix" result="shape"/>
<feGaussianBlur stdDeviation="0.25" result="effect1_foregroundBlur_3389_53"/>
</filter>
<filter id="filter1_f_3389_53" x="32.7695" y="31.955" width="85.1963" height="11.74" filterUnits="userSpaceOnUse" color-interpolation-filters="sRGB">
<feFlood flood-opacity="0" result="BackgroundImageFix"/>
<feBlend mode="normal" in="SourceGraphic" in2="BackgroundImageFix" result="shape"/>
<feGaussianBlur stdDeviation="0.25" result="effect1_foregroundBlur_3389_53"/>
</filter>
<filter id="filter2_f_3389_53" x="14.0682" y="0.200732" width="5.89395" height="49.4528" filterUnits="userSpaceOnUse" color-interpolation-filters="sRGB">
<feFlood flood-opacity="0" result="BackgroundImageFix"/>
<feBlend mode="normal" in="SourceGraphic" in2="BackgroundImageFix" result="shape"/>
<feGaussianBlur stdDeviation="0.4" result="effect1_foregroundBlur_3389_53"/>
</filter>
<filter id="filter3_f_3389_53" x="15" y="1.00012" width="3.90039" height="10.1334" filterUnits="userSpaceOnUse" color-interpolation-filters="sRGB">
<feFlood flood-opacity="0" result="BackgroundImageFix"/>
<feBlend mode="normal" in="SourceGraphic" in2="BackgroundImageFix" result="shape"/>
<feGaussianBlur stdDeviation="0.5" result="effect1_foregroundBlur_3389_53"/>
</filter>
<filter id="filter4_f_3389_53" x="0.599609" y="4.59998" width="34.8008" height="32.8" filterUnits="userSpaceOnUse" color-interpolation-filters="sRGB">
<feFlood flood-opacity="0" result="BackgroundImageFix"/>
<feBlend mode="normal" in="SourceGraphic" in2="BackgroundImageFix" result="shape"/>
<feGaussianBlur stdDeviation="0.25" result="effect1_foregroundBlur_3389_53"/>
</filter>
</defs>
</svg>
